<?xml version="1.0" encoding="UTF-8"?>
<!DOCTYPE svg PUBLIC "-//W3C//DTD SVG 1.1//EN" "http://www.w3.org/Graphics/SVG/1.1/DTD/svg11.dtd">
<svg version="1.2" width="156px" height="48px" viewBox="1764 1805 52917 13147" preserveAspectRatio="xMidYMid" fill-rule="evenodd" stroke-width="28.222" stroke-linejoin="round" xmlns="http://www.w3.org/2000/svg" xmlns:ooo="http://xml.openoffice.org/svg/export" xmlns:xlink="http://www.w3.org/1999/xlink" xmlns:presentation="http://sun.com/xmlns/staroffice/presentation" xmlns:smil="http://www.w3.org/2001/SMIL20/" xmlns:anim="urn:oasis:names:tc:opendocument:xmlns:animation:1.0" xml:space="preserve">
 <defs class="ClipPathGroup">
  <clipPath id="presentation_clip_path" clipPathUnits="userSpaceOnUse">
   <rect x="1764" y="1805" width="52917" height="13147"/>
  </clipPath>
  <clipPath id="presentation_clip_path_shrink" clipPathUnits="userSpaceOnUse">
   <rect x="1816" y="1818" width="52812" height="13121"/>
  </clipPath>
 </defs>
 <defs class="TextShapeIndex">
  <g ooo:slide="id1" ooo:id-list="id3 id4 id5 id6 id7 id8 id9 id10 id11 id12 id13 id14 id15 id16 id17 id18 id19 id20 id21 id22 id23 id24 id25 id26 id27 id28 id29 id30 id31 id32 id33"/>
 </defs>
 <defs class="EmbeddedBulletChars">
  <g id="bullet-char-template-57356" transform="scale(0.00048828125,-0.00048828125)">
   <path d="M 580,1141 L 1163,571 580,0 -4,571 580,1141 Z"/>
  </g>
  <g id="bullet-char-template-57354" transform="scale(0.00048828125,-0.00048828125)">
   <path d="M 8,1128 L 1137,1128 1137,0 8,0 8,1128 Z"/>
  </g>
  <g id="bullet-char-template-10146" transform="scale(0.00048828125,-0.00048828125)">
   <path d="M 174,0 L 602,739 174,1481 1456,739 174,0 Z M 1358,739 L 309,1346 659,739 1358,739 Z"/>
  </g>
  <g id="bullet-char-template-10132" transform="scale(0.00048828125,-0.00048828125)">
   <path d="M 2015,739 L 1276,0 717,0 1260,543 174,543 174,936 1260,936 717,1481 1274,1481 2015,739 Z"/>
  </g>
  <g id="bullet-char-template-10007" transform="scale(0.00048828125,-0.00048828125)">
   <path d="M 0,-2 C -7,14 -16,27 -25,37 L 356,567 C 262,823 215,952 215,954 215,979 228,992 255,992 264,992 276,990 289,987 310,991 331,999 354,1012 L 381,999 492,748 772,1049 836,1024 860,1049 C 881,1039 901,1025 922,1006 886,937 835,863 770,784 769,783 710,716 594,584 L 774,223 C 774,196 753,168 711,139 L 727,119 C 717,90 699,76 672,76 641,76 570,178 457,381 L 164,-76 C 142,-110 111,-127 72,-127 30,-127 9,-110 8,-76 1,-67 -2,-52 -2,-32 -2,-23 -1,-13 0,-2 Z"/>
  </g>
  <g id="bullet-char-template-10004" transform="scale(0.00048828125,-0.00048828125)">
   <path d="M 285,-33 C 182,-33 111,30 74,156 52,228 41,333 41,471 41,549 55,616 82,672 116,743 169,778 240,778 293,778 328,747 346,684 L 369,508 C 377,444 397,411 428,410 L 1163,1116 C 1174,1127 1196,1133 1229,1133 1271,1133 1292,1118 1292,1087 L 1292,965 C 1292,929 1282,901 1262,881 L 442,47 C 390,-6 338,-33 285,-33 Z"/>
  </g>
  <g id="bullet-char-template-9679" transform="scale(0.00048828125,-0.00048828125)">
   <path d="M 813,0 C 632,0 489,54 383,161 276,268 223,411 223,592 223,773 276,916 383,1023 489,1130 632,1184 813,1184 992,1184 1136,1130 1245,1023 1353,916 1407,772 1407,592 1407,412 1353,268 1245,161 1136,54 992,0 813,0 Z"/>
  </g>
  <g id="bullet-char-template-8226" transform="scale(0.00048828125,-0.00048828125)">
   <path d="M 346,457 C 273,457 209,483 155,535 101,586 74,649 74,723 74,796 101,859 155,911 209,963 273,989 346,989 419,989 480,963 531,910 582,859 608,796 608,723 608,648 583,586 532,535 482,483 420,457 346,457 Z"/>
  </g>
  <g id="bullet-char-template-8211" transform="scale(0.00048828125,-0.00048828125)">
   <path d="M -4,459 L 1135,459 1135,606 -4,606 -4,459 Z"/>
  </g>
  <g id="bullet-char-template-61548" transform="scale(0.00048828125,-0.00048828125)">
   <path d="M 173,740 C 173,903 231,1043 346,1159 462,1274 601,1332 765,1332 928,1332 1067,1274 1183,1159 1299,1043 1357,903 1357,740 1357,577 1299,437 1183,322 1067,206 928,148 765,148 601,148 462,206 346,322 231,437 173,577 173,740 Z"/>
  </g>
 </defs>
 <defs class="TextEmbeddedBitmaps"/>
 <g class="SlideGroup">
  <g>
   <g id="container-id1">
    <g id="id1" class="Slide" clip-path="url(#presentation_clip_path)">
     <g class="Page">
      <g class="com.sun.star.drawing.ClosedBezierShape">
       <g id="id3">
        <rect class="BoundingBox" stroke="none" fill="none" x="18478" y="11800" width="2266" height="3153"/>
        <path fill="rgb(0,0,0)" stroke="none" d="M 19606,13815 C 20100,13815 20476,13426 20476,12932 20476,12443 20100,12054 19606,12054 19107,12054 18736,12443 18736,12932 18736,13426 19107,13815 19606,13815 Z M 18736,12370 C 18895,12026 19225,11800 19643,11800 20272,11800 20743,12293 20743,12932 20743,13575 20272,14069 19643,14069 19225,14069 18895,13847 18736,13512 L 18736,14952 18478,14952 18478,11845 18736,11845 18736,12370 Z"/>
       </g>
      </g>
      <g class="com.sun.star.drawing.ClosedBezierShape">
       <g id="id4">
        <rect class="BoundingBox" stroke="none" fill="none" x="21277" y="11800" width="1039" height="2225"/>
        <path fill="rgb(0,0,0)" stroke="none" d="M 21535,12171 C 21634,11949 21829,11800 22119,11800 22187,11800 22250,11809 22315,11823 L 22315,12099 C 22246,12072 22155,12054 22078,12054 21707,12054 21544,12322 21535,12707 L 21535,14024 21277,14024 21277,11845 21535,11845 21535,12171 Z"/>
       </g>
      </g>
      <g class="com.sun.star.drawing.ClosedBezierShape">
       <g id="id5">
        <rect class="BoundingBox" stroke="none" fill="none" x="22667" y="10940" width="388" height="3085"/>
        <path fill="rgb(0,0,0)" stroke="none" d="M 22989,14024 L 22730,14024 22730,11845 22989,11845 22989,14024 Z M 22858,10940 C 22971,10940 23053,11026 23053,11130 23053,11238 22971,11320 22858,11320 22753,11320 22667,11238 22667,11130 22667,11026 22753,10940 22858,10940 Z"/>
       </g>
      </g>
      <g class="com.sun.star.drawing.PolyPolygonShape">
       <g id="id6">
        <rect class="BoundingBox" stroke="none" fill="none" x="23419" y="11845" width="2062" height="2180"/>
        <path fill="rgb(0,0,0)" stroke="none" d="M 23696,11845 L 24448,13712 25208,11845 25480,11845 24588,14024 24312,14024 23419,11845 23696,11845 Z"/>
       </g>
      </g>
      <g class="com.sun.star.drawing.ClosedBezierShape">
       <g id="id7">
        <rect class="BoundingBox" stroke="none" fill="none" x="25656" y="11800" width="1664" height="2271"/>
        <path fill="rgb(0,0,0)" stroke="none" d="M 26485,13857 C 26798,13857 27061,13626 27061,13336 27061,13055 26789,12820 26485,12820 26173,12820 25919,13055 25919,13336 25919,13626 26182,13857 26485,13857 Z M 25897,11963 C 26060,11872 26268,11800 26517,11800 26961,11800 27319,12031 27319,12598 L 27319,14024 27061,14024 27061,13748 C 26943,13938 26712,14070 26440,14070 25969,14070 25656,13743 25656,13336 25656,12924 25996,12607 26445,12607 26712,12607 26952,12756 27061,12915 L 27061,12598 C 27061,12198 26775,12040 26499,12040 26277,12040 26078,12112 25897,12230 L 25897,11963 Z"/>
       </g>
      </g>
      <g class="com.sun.star.drawing.ClosedBezierShape">
       <g id="id8">
        <rect class="BoundingBox" stroke="none" fill="none" x="27825" y="11800" width="1746" height="2271"/>
        <path fill="rgb(0,0,0)" stroke="none" d="M 29569,13893 C 29406,14002 29184,14070 28963,14070 28314,14070 27825,13576 27825,12933 27825,12293 28314,11800 28963,11800 29184,11800 29406,11863 29569,11968 L 29569,12266 C 29415,12135 29202,12053 28963,12053 28472,12053 28092,12443 28092,12933 28092,13427 28472,13816 28963,13816 29198,13816 29415,13734 29569,13608 L 29569,13893 Z"/>
       </g>
      </g>
      <g class="com.sun.star.drawing.PolyPolygonShape">
       <g id="id9">
        <rect class="BoundingBox" stroke="none" fill="none" x="29863" y="11845" width="2022" height="3108"/>
        <path fill="rgb(0,0,0)" stroke="none" d="M 30723,13856 L 29863,11845 30157,11845 30864,13534 31589,11845 31883,11845 30533,14952 30239,14952 30723,13856 Z"/>
       </g>
      </g>
      <g class="com.sun.star.drawing.ClosedBezierShape">
       <g id="id10">
        <rect class="BoundingBox" stroke="none" fill="none" x="33287" y="11800" width="1794" height="2225"/>
        <path fill="rgb(0,0,0)" stroke="none" d="M 33545,12226 C 33662,11968 33898,11800 34237,11800 34754,11800 35080,12171 35080,12688 L 35080,14024 34826,14024 34826,12734 C 34826,12335 34586,12054 34183,12054 33789,12054 33554,12322 33545,12706 L 33545,14024 33287,14024 33287,11845 33545,11845 33545,12226 Z"/>
       </g>
      </g>
      <g class="com.sun.star.drawing.ClosedBezierShape">
       <g id="id11">
        <rect class="BoundingBox" stroke="none" fill="none" x="35587" y="11800" width="2162" height="2270"/>
        <path fill="rgb(0,0,0)" stroke="none" d="M 35851,12829 L 37494,12829 C 37490,12348 37127,12031 36679,12031 36222,12031 35878,12380 35851,12829 Z M 35855,13046 C 35896,13499 36244,13830 36706,13830 37023,13830 37336,13671 37512,13522 L 37512,13811 C 37331,13938 37041,14069 36693,14069 36068,14069 35587,13585 35587,12933 35587,12293 36059,11800 36679,11800 37300,11800 37748,12275 37748,12883 37748,12942 37743,13010 37734,13046 L 35855,13046 Z"/>
       </g>
      </g>
      <g class="com.sun.star.drawing.PolyPolygonShape">
       <g id="id12">
        <rect class="BoundingBox" stroke="none" fill="none" x="37942" y="11207" width="1161" height="2819"/>
        <path fill="rgb(0,0,0)" stroke="none" d="M 38386,14024 L 38386,12072 37942,12072 37942,11845 38395,11845 38395,11279 38644,11207 38644,11845 39102,11845 39102,12072 38644,12072 38644,14024 38386,14024 Z"/>
       </g>
      </g>
      <g class="com.sun.star.drawing.PolyPolygonShape">
       <g id="id13">
        <rect class="BoundingBox" stroke="none" fill="none" x="39278" y="11845" width="3227" height="2180"/>
        <path fill="rgb(0,0,0)" stroke="none" d="M 39554,11845 L 40115,13698 40714,12104 40605,11845 40877,11845 41660,13698 42226,11845 42503,11845 41814,14024 41538,14024 40850,12403 40242,14024 39961,14024 39278,11845 39554,11845 Z"/>
       </g>
      </g>
      <g class="com.sun.star.drawing.ClosedBezierShape">
       <g id="id14">
        <rect class="BoundingBox" stroke="none" fill="none" x="42769" y="11800" width="2266" height="2271"/>
        <path fill="rgb(0,0,0)" stroke="none" d="M 43901,13816 C 44396,13816 44772,13427 44772,12933 44772,12443 44396,12054 43901,12054 43412,12054 43036,12443 43036,12933 43036,13427 43412,13816 43901,13816 Z M 43901,11800 C 44545,11800 45034,12293 45034,12933 45034,13576 44545,14070 43901,14070 43263,14070 42769,13576 42769,12933 42769,12293 43263,11800 43901,11800 Z"/>
       </g>
      </g>
      <g class="com.sun.star.drawing.ClosedBezierShape">
       <g id="id15">
        <rect class="BoundingBox" stroke="none" fill="none" x="45563" y="11800" width="1039" height="2225"/>
        <path fill="rgb(0,0,0)" stroke="none" d="M 45822,12171 C 45921,11949 46117,11800 46407,11800 46475,11800 46538,11809 46601,11823 L 46601,12099 C 46533,12072 46443,12054 46366,12054 45994,12054 45831,12322 45822,12707 L 45822,14024 45563,14024 45563,11845 45822,11845 45822,12171 Z"/>
       </g>
      </g>
      <g class="com.sun.star.drawing.PolyPolygonShape">
       <g id="id16">
        <rect class="BoundingBox" stroke="none" fill="none" x="47016" y="10899" width="1629" height="3126"/>
        <path fill="rgb(0,0,0)" stroke="none" d="M 47017,10899 L 47275,10899 47275,12992 48300,11846 48612,11846 47850,12716 48644,14024 48336,14024 47665,12892 47275,13331 47275,14024 47017,14024 47017,10899 Z"/>
       </g>
      </g>
      <g class="com.sun.star.drawing.ClosedBezierShape">
       <g id="id17">
        <rect class="BoundingBox" stroke="none" fill="none" x="5562" y="7364" width="5798" height="968"/>
        <path fill="rgb(255,181,17)" stroke="none" d="M 11004,7364 L 5917,7364 C 5721,7364 5562,7524 5562,7719 L 5562,8331 11359,8331 11359,7719 C 11359,7524 11199,7364 11004,7364 Z"/>
       </g>
      </g>
      <g class="com.sun.star.drawing.PolyPolygonShape">
       <g id="id18">
        <rect class="BoundingBox" stroke="none" fill="none" x="5562" y="10479" width="5798" height="968"/>
        <path fill="rgb(255,181,17)" stroke="none" d="M 5562,11446 L 11359,11446 11359,10479 5562,10479 5562,11446 Z"/>
       </g>
      </g>
      <g class="com.sun.star.drawing.ClosedBezierShape">
       <g id="id19">
        <rect class="BoundingBox" stroke="none" fill="none" x="5827" y="12036" width="5267" height="1422"/>
        <path fill="rgb(255,181,17)" stroke="none" d="M 8461,13457 C 10052,13457 11093,12036 11093,12036 L 5828,12036 C 5828,12036 6869,13457 8461,13457 Z"/>
       </g>
      </g>
      <g class="com.sun.star.drawing.ClosedBezierShape">
       <g id="id20">
        <rect class="BoundingBox" stroke="none" fill="none" x="7871" y="13860" width="1180" height="1093"/>
        <path fill="rgb(0,0,0)" stroke="none" d="M 7871,13860 C 7871,13860 8163,14952 8460,14952 8756,14952 9050,13860 9050,13860 8862,13894 8665,13915 8460,13915 8255,13915 8059,13894 7871,13860 Z"/>
       </g>
      </g>
      <g class="com.sun.star.drawing.PolyPolygonShape">
       <g id="id21">
        <rect class="BoundingBox" stroke="none" fill="none" x="5562" y="8921" width="5798" height="969"/>
        <path fill="rgb(255,181,17)" stroke="none" d="M 5562,9888 L 11359,9888 11359,8921 5562,8921 5562,9888 Z"/>
       </g>
      </g>
      <g class="com.sun.star.drawing.ClosedBezierShape">
       <g id="id22">
        <rect class="BoundingBox" stroke="none" fill="none" x="6153" y="4465" width="4615" height="2310"/>
        <path fill="rgb(255,181,17)" stroke="none" d="M 6153,6774 L 6745,6774 C 6745,5828 7515,5057 8461,5057 9407,5057 10176,5828 10176,6774 L 10767,6774 C 10767,5499 9735,4466 8461,4466 7187,4466 6153,5499 6153,6774 Z"/>
       </g>
      </g>
      <g class="com.sun.star.drawing.ClosedBezierShape">
       <g id="id23">
        <rect class="BoundingBox" stroke="none" fill="none" x="5355" y="1805" width="2680" height="2264"/>
        <path fill="rgb(0,0,0)" stroke="none" d="M 6918,3464 C 7112,3672 7282,3876 7424,4068 7619,3993 7823,3938 8034,3907 7795,3552 7509,3225 7293,2998 7176,2876 6141,1805 5650,1805 5487,1805 5355,1937 5355,2100 5355,2258 5478,2387 5633,2396 5776,2436 6315,2818 6918,3464 Z"/>
       </g>
      </g>
      <g class="com.sun.star.drawing.ClosedBezierShape">
       <g id="id24">
        <rect class="BoundingBox" stroke="none" fill="none" x="8886" y="1805" width="2682" height="2264"/>
        <path fill="rgb(0,0,0)" stroke="none" d="M 11270,1805 C 10779,1805 9745,2876 9629,2998 9413,3225 9125,3552 8886,3907 9098,3938 9302,3993 9497,4068 9639,3876 9809,3672 10003,3464 10606,2818 11145,2436 11287,2395 11442,2387 11566,2258 11566,2100 11566,1937 11433,1805 11270,1805 Z"/>
       </g>
      </g>
      <g class="com.sun.star.drawing.ClosedBezierShape">
       <g id="id25">
        <rect class="BoundingBox" stroke="none" fill="none" x="1764" y="7837" width="3209" height="5326"/>
        <path fill="rgb(0,0,0)" stroke="none" d="M 2310,12629 C 3789,14108 4972,12037 4972,12037 L 4972,7837 C 4972,7837 180,10500 2310,12629 Z"/>
       </g>
      </g>
      <g class="com.sun.star.drawing.ClosedBezierShape">
       <g id="id26">
        <rect class="BoundingBox" stroke="none" fill="none" x="11949" y="7837" width="3210" height="5326"/>
        <path fill="rgb(0,0,0)" stroke="none" d="M 11949,7837 L 11949,12037 C 11949,12037 13132,14108 14612,12629 16741,10500 11949,7837 11949,7837 Z"/>
       </g>
      </g>
      <g class="com.sun.star.drawing.PolyPolygonShape">
       <g id="id27">
        <rect class="BoundingBox" stroke="none" fill="none" x="18478" y="3675" width="4813" height="4852"/>
        <path fill="rgb(0,0,0)" stroke="none" d="M 20017,8526 L 18478,8526 20075,6100 18478,3675 20017,3675 20884,5106 21742,3675 23290,3675 21703,6100 23290,8526 21742,8526 20884,7083 20017,8526 Z"/>
       </g>
      </g>
      <g class="com.sun.star.drawing.ClosedBezierShape">
       <g id="id28">
        <rect class="BoundingBox" stroke="none" fill="none" x="23397" y="3577" width="3634" height="5057"/>
        <path fill="rgb(0,0,0)" stroke="none" d="M 27030,8399 C 26758,8545 26290,8633 25959,8633 24420,8633 23397,7521 23397,6100 23397,4668 24420,3577 25959,3577 26281,3577 26758,3665 27030,3801 L 27030,5204 C 26777,5028 26407,4872 25959,4872 25248,4872 24742,5428 24742,6100 24742,6772 25248,7337 25959,7337 26397,7337 26787,7181 27030,6996 L 27030,8399 Z"/>
       </g>
      </g>
      <g class="com.sun.star.drawing.ClosedBezierShape">
       <g id="id29">
        <rect class="BoundingBox" stroke="none" fill="none" x="27633" y="3577" width="5047" height="5057"/>
        <path fill="rgb(0,0,0)" stroke="none" d="M 30157,7337 C 30839,7337 31325,6772 31325,6100 31325,5428 30839,4872 30157,4872 29485,4872 28978,5428 28978,6100 28978,6772 29485,7337 30157,7337 Z M 30157,3577 C 31579,3577 32679,4678 32679,6100 32679,7522 31579,8633 30157,8633 28735,8633 27633,7522 27633,6100 27633,4678 28735,3577 30157,3577 Z"/>
       </g>
      </g>
      <g class="com.sun.star.drawing.ClosedBezierShape">
       <g id="id30">
        <rect class="BoundingBox" stroke="none" fill="none" x="33224" y="3577" width="5048" height="5057"/>
        <path fill="rgb(0,0,0)" stroke="none" d="M 35746,7337 C 36428,7337 36915,6772 36915,6100 36915,5428 36428,4872 35746,4872 35074,4872 34568,5428 34568,6100 34568,6772 35074,7337 35746,7337 Z M 35746,3577 C 37168,3577 38270,4678 38270,6100 38270,7522 37168,8633 35746,8633 34324,8633 33224,7522 33224,6100 33224,4678 34324,3577 35746,3577 Z"/>
       </g>
      </g>
      <g class="com.sun.star.drawing.ClosedBezierShape">
       <g id="id31">
        <rect class="BoundingBox" stroke="none" fill="none" x="39097" y="1805" width="5125" height="6829"/>
        <path fill="rgb(255,181,17)" stroke="none" d="M 41639,7328 C 42330,7328 42837,6763 42837,6101 42837,5438 42330,4883 41639,4883 40938,4883 40421,5438 40421,6101 40421,6763 40938,7328 41639,7328 Z M 40421,8526 L 39097,8526 39097,1805 40421,1805 40421,4299 C 40753,3851 41278,3578 41912,3578 43275,3578 44221,4679 44221,6101 44221,7522 43275,8633 41921,8633 41278,8633 40753,8350 40421,7902 L 40421,8526 Z"/>
       </g>
      </g>
      <g class="com.sun.star.drawing.ClosedBezierShape">
       <g id="id32">
        <rect class="BoundingBox" stroke="none" fill="none" x="44774" y="3577" width="4697" height="5057"/>
        <path fill="rgb(255,181,17)" stroke="none" d="M 46100,5515 L 48194,5515 C 48174,5019 47755,4678 47190,4678 46606,4678 46168,5058 46100,5515 Z M 46100,6518 C 46216,7074 46703,7434 47385,7434 47989,7434 48593,7259 49031,6976 L 49031,8253 C 48603,8477 47979,8633 47278,8633 45837,8633 44775,7610 44775,6100 44775,4678 45798,3577 47200,3577 48603,3577 49470,4629 49470,5885 49470,6090 49431,6363 49393,6518 L 46100,6518 Z"/>
       </g>
      </g>
      <g class="com.sun.star.drawing.ClosedBezierShape">
       <g id="id33">
        <rect class="BoundingBox" stroke="none" fill="none" x="49985" y="3577" width="4697" height="5057"/>
        <path fill="rgb(255,181,17)" stroke="none" d="M 51310,5515 L 53404,5515 C 53385,5019 52966,4678 52401,4678 51817,4678 51378,5058 51310,5515 Z M 51310,6518 C 51427,7074 51914,7434 52596,7434 53200,7434 53804,7259 54243,6976 L 54243,8253 C 53813,8477 53190,8633 52489,8633 51047,8633 49986,7610 49986,6100 49986,4678 51008,3577 52411,3577 53813,3577 54681,4629 54681,5885 54681,6090 54642,6363 54603,6518 L 51310,6518 Z"/>
       </g>
      </g>
     </g>
    </g>
   </g>
  </g>
 </g>
</svg>