<svg xmlns="http://www.w3.org/2000/svg" viewBox="0 0 320 320">
    <defs>
        <style>
            .cls-1{fill:#e5efdb;}.cls-2{fill:#cadfb8;}.cls-3{fill:#b1cf95;}.cls-4{fill:#5f803f;}.cls-5{fill:#193c66;}.cls-6{fill:#4d4d4f;opacity:0.76;}
        </style>
    </defs>
    <title>Artboard 1 copy</title>
    <g id="Layer_7" data-name="Layer 7">
        <path class="cls-1"
              d="M320,160c0,.69,0,1.38,0,2.07,0,1,0,2-.07,3,0,.38,0,.75,0,1.12-.06,1.53-.13,3-.23,4.56l-.12,1.57c0,.4-.06.81-.1,1.21q-.06.85-.15,1.71c0,.38-.07.75-.11,1.13s-.09.92-.14,1.38l-.15,1.24c-.07.62-.14,1.24-.23,1.86s-.16,1.24-.25,1.86q-.78,5.56-2,11l-.24,1.1c-.09.45-.2.89-.3,1.33-.15.65-.3,1.29-.46,1.93s-.31,1.29-.48,1.92c-.11.44-.22.88-.34,1.31s-.24.91-.37,1.36a158.25,158.25,0,0,1-6.63,19.17q-.66,1.56-1.35,3.12c-.39.89-.8,1.78-1.22,2.67l0,.07c-.16.36-.33.71-.51,1.07-.37.79-.75,1.58-1.14,2.36-.07.15-.15.3-.23.45q-.7,1.42-1.44,2.82c-.14.26-.27.52-.42.77-.47.9-1,1.8-1.46,2.69-.59,1-1.18,2.09-1.79,3.12s-1,1.77-1.59,2.64c-.2.34-.41.68-.62,1-.5.8-1,1.59-1.52,2.37a9.9,9.9,0,0,1-.56.87c-.48.74-1,1.47-1.47,2.2s-1.19,1.72-1.79,2.57c-.17.25-.35.49-.52.73-.58.8-1.16,1.59-1.75,2.38-.11.16-.23.31-.35.46q-2,2.7-4.17,5.31l-1.46,1.75-.86,1c-.78.89-1.55,1.77-2.34,2.65-.5.56-1,1.11-1.52,1.67s-1,1.1-1.54,1.64-1,1.09-1.56,1.62-1.06,1.08-1.59,1.6-1.08,1.08-1.63,1.6-1.07,1-1.61,1.53-1.08,1-1.63,1.52l-1.8,1.62c-.53.47-1,.93-1.59,1.39s-1.24,1.07-1.87,1.59L261.11,284l-1.67,1.34q-2.58,2.06-5.26,4c-.51.38-1,.75-1.56,1.12-.25.18-.5.36-.76.53-.53.38-1.05.75-1.59,1.11l-1.73,1.17q-1.95,1.31-3.95,2.54t-3.87,2.34c-1.31.77-2.62,1.51-3.95,2.24-.66.37-1.33.73-2,1.07-2,1.07-4,2.1-6.1,3.07-.68.33-1.36.65-2.06,1l-2.08.94c-1.34.59-2.69,1.16-4.05,1.72l-.16.06c-1,.39-1.92.78-2.89,1.15s-2,.74-2.93,1.09c-.77.28-1.54.56-2.32.82-1.21.43-2.43.83-3.66,1.22-.94.3-1.88.59-2.83.87l-.11,0c-.85.26-1.71.5-2.57.74l-.7.19c-.77.22-1.55.42-2.33.62-1.27.33-2.55.65-3.85.94-.92.21-1.84.42-2.77.61s-2,.43-3.07.63h0c-1,.2-2.08.38-3.12.56s-2.09.35-3.14.51-2,.29-3,.42l-.59.08c-.9.12-1.81.22-2.71.32-2,.23-4.07.41-6.13.56l-.45,0-2.29.14c-1.15.06-2.31.12-3.48.15l-2,0c-1.12,0-2.24,0-3.36,0l-2.41,0c-1.26,0-2.52-.05-3.77-.1-.92,0-1.83-.07-2.74-.13-1.14-.06-2.26-.13-3.39-.22l-.37,0c-1.23-.09-2.46-.2-3.68-.33l-.49-.05c-1.17-.12-2.34-.26-3.5-.41a0,0,0,0,1,0,0q-3.33-.42-6.63-1l-.67-.12c-1-.17-2-.36-3.06-.56l-3.09-.63-.55-.12c-.89-.2-1.78-.4-2.66-.62-1.39-.32-2.76-.66-4.12-1-1-.27-2-.55-3-.84s-2.21-.64-3.3-1l-.07,0c-1-.3-1.9-.6-2.84-.92-1.34-.44-2.66-.9-4-1.38-1-.34-1.89-.69-2.83-1.05s-1.62-.62-2.42-.95l-.84-.34-.59-.24c-.83-.34-1.65-.69-2.46-1l-3.07-1.37-.11,0c-1-.47-2-.94-3-1.42a.46.46,0,0,1-.14-.07q-1.16-.56-2.31-1.14l-2.4-1.24q-1.32-.69-2.61-1.41L81,299.14c-.2-.11-.4-.22-.59-.34l-2-1.19c-.76-.45-1.51-.9-2.26-1.37-1.64-1-3.25-2-4.84-3.1l-2-1.36c-.74-.51-1.48-1-2.21-1.56s-1.46-1.05-2.18-1.59c-.89-.65-1.76-1.31-2.63-2l-1.65-1.3c-.71-.56-1.4-1.12-2.1-1.69l-1.6-1.34-.8-.67-1.69-1.47-2-1.81-2-1.83q-3.18-3-6.19-6.15c-1.08-1.14-2.16-2.3-3.21-3.47q-1.86-2.06-3.64-4.19-1.57-1.87-3.09-3.8c-1.62-2.06-3.2-4.16-4.72-6.31-.26-.37-.53-.74-.78-1.11-.85-1.2-1.67-2.42-2.48-3.66-.36-.53-.71-1.07-1.05-1.61s-.69-1.09-1-1.63-.68-1.09-1-1.65c-.43-.71-.86-1.43-1.28-2.15s-.91-1.56-1.35-2.35c-.32-.55-.62-1.1-.93-1.66-.09-.18-.19-.36-.29-.54-.3-.54-.59-1.09-.88-1.64s-.44-.83-.65-1.25c-.35-.67-.69-1.34-1-2s-.65-1.32-1-2-.56-1.17-.83-1.76q-1.33-2.85-2.55-5.76c-.2-.46-.39-.91-.57-1.37-.5-1.2-1-2.41-1.44-3.64-.23-.6-.46-1.22-.68-1.83s-.45-1.23-.66-1.84q-.66-1.84-1.26-3.72l-.6-1.87c-.39-1.26-.76-2.51-1.12-3.78-.17-.58-.33-1.17-.49-1.75l-.09-.33c-.49-1.85-1-3.71-1.39-5.59-.14-.57-.27-1.15-.39-1.73-.79-3.59-1.46-7.24-2-10.92-.09-.59-.17-1.18-.25-1.77-.24-1.78-.45-3.56-.63-5.35,0-.45-.09-.9-.13-1.35s-.1-1-.13-1.47-.07-.82-.1-1.23C.36,170.89.27,169.46.2,168c0-.61-.06-1.23-.08-1.85Q0,163.1,0,160c0-1.18,0-2.35,0-3.52,0-.89,0-1.78.08-2.66,0-.11,0-.21,0-.31,0-.38,0-.75,0-1.12,0-1,.1-1.92.16-2.88.07-1.16.16-2.31.26-3.46.07-.8.14-1.61.23-2.41,0,0,0-.09,0-.14L1,142.13c.09-.8.18-1.6.29-2.39,0-.31.07-.63.12-.94.24-1.89.53-3.77.85-5.64.07-.48.16-.95.24-1.43q.29-1.59.6-3.15c.18-.93.37-1.85.57-2.77a.08.08,0,0,0,0,0c.21-1,.42-1.89.65-2.84.08-.34.15-.67.24-1,.21-.88.43-1.75.66-2.62a.78.78,0,0,1,0-.18c.26-1,.52-2,.8-2.94,0-.08,0-.16.07-.24.3-1,.61-2.09.93-3.13s.57-1.83.87-2.73c.12-.37.24-.74.37-1.1.29-.9.6-1.78.92-2.66s.73-2,1.12-3.06.79-2.06,1.21-3.09.84-2,1.27-3.06.84-1.94,1.27-2.9,1-2.1,1.46-3.13.91-1.89,1.38-2.82a2.59,2.59,0,0,1,.14-.29c.44-.85.87-1.7,1.32-2.55,0-.08.08-.16.13-.24.51-1,1-1.93,1.57-2.89s1.07-1.91,1.63-2.86.95-1.61,1.43-2.41c1.23-2,2.51-4,3.82-6,.6-.89,1.21-1.77,1.82-2.65,1-1.47,2.08-2.92,3.16-4.35.32-.44.65-.88,1-1.31a1.33,1.33,0,0,1,.14-.19c.52-.68,1-1.35,1.58-2,.79-1,1.59-2,2.4-3l.7-.83c.64-.76,1.29-1.52,1.95-2.26.18-.22.37-.43.56-.64.66-.74,1.32-1.48,2-2.21q1.59-1.72,3.23-3.41c.85-.87,1.7-1.73,2.57-2.57l.15-.15Q51,42.78,54,40.2c.92-.82,1.85-1.63,2.8-2.43l.23-.19c1.88-1.59,3.8-3.14,5.76-4.63a3.55,3.55,0,0,1,.31-.23c.59-.46,1.18-.9,1.78-1.34s1.32-1,2-1.45l.56-.41Q69.15,28.26,71,27q5.2-3.49,10.69-6.58l2.08-1.15q1.37-.75,2.76-1.47L88.13,17q2.1-1.07,4.26-2.06l1.06-.49c.58-.27,1.15-.53,1.73-.78.77-.35,1.54-.68,2.32-1l1.24-.52.78-.32,1.32-.53c.45-.19.91-.37,1.37-.54.79-.31,1.58-.61,2.38-.9s1.49-.55,2.24-.81c.58-.21,1.16-.41,1.75-.6,1.07-.37,2.16-.73,3.25-1.07.81-.26,1.63-.51,2.45-.75l2-.57,1.27-.35c2.44-.67,4.9-1.29,7.39-1.84.62-.15,1.25-.28,1.88-.41.84-.18,1.69-.36,2.54-.52q2.91-.57,5.85-1l1.66-.25,1.89-.26c.32,0,.63-.09.95-.12.48-.07,1-.13,1.43-.18L142.52,1q1-.12,2.07-.21L146,.6l1.65-.13,1.5-.11c1.63-.11,3.28-.19,4.93-.25q1,0,1.95-.06c1.31,0,2.62,0,3.93,0,2.76,0,5.51.07,8.23.21l1.64.09Q176,.68,182,1.51l1.61.22q2.79.42,5.54.93c1.18.22,2.36.45,3.53.69s2.28.49,3.42.75l.31.07c1.09.26,2.17.52,3.25.8s2.3.6,3.45.92,2.28.65,3.41,1L209.93,8q3.38,1.11,6.67,2.36A69.89,69.89,0,0,0,210,40a70.86,70.86,0,0,0,.93,11.45,70,70,0,0,0,98.76,52c.83,2.2,1.61,4.41,2.35,6.65.37,1.12.72,2.25,1.07,3.38s.67,2.26,1,3.4.63,2.29.92,3.44.56,2.21.81,3.32a2.29,2.29,0,0,1,.07.28c.25,1.07.48,2.14.71,3.22,0,.07,0,.15.05.24.23,1.14.46,2.28.67,3.43.16.86.31,1.73.46,2.6,0,.1,0,.19,0,.29.14.82.27,1.64.39,2.47,0,.16,0,.32.07.47.11.72.21,1.45.3,2.18.14,1,.26,2,.38,3,.06.62.13,1.25.19,1.87s.13,1.24.18,1.86c.09,1,.17,2,.24,3.05.06.77.11,1.54.15,2.3.07,1.22.13,2.46.16,3.7,0,.81.06,1.62.07,2.44C320,158,320,159,320,160Z"/>
        <path class="cls-2"
              d="M279.89,160a120.17,120.17,0,0,1-1.56,19.37,118.18,118.18,0,0,1-8.49,28.72A119.91,119.91,0,0,1,48.29,203.6a118.72,118.72,0,0,1-7-26.6A120.13,120.13,0,0,1,104.73,53.59a120,120,0,0,1,106.2-2.14,70,70,0,0,0,57.62,57.61A119.26,119.26,0,0,1,279.89,160Z"/>
        <circle class="cls-3" cx="160" cy="160" r="68.51"/>
        <circle class="cls-4" cx="160" cy="160" r="39.15"/>
        <circle class="cls-5" cx="160" cy="160" r="15.82"/>
        <circle id="_Path_" data-name="&lt;Path&gt;" class="cls-6" cx="95" cy="65" r="15"/>
        <circle id="_Path_2" data-name="&lt;Path&gt;" class="cls-6" cx="160" cy="280" r="15"/>
        <circle id="_Path_3" data-name="&lt;Path&gt;" class="cls-6" cx="65" cy="185" r="25"/>
        <path id="_Path_4" data-name="&lt;Path&gt;" class="cls-6"
              d="M160,184.49A35,35,0,1,0,150,160,34.89,34.89,0,0,0,160,184.49Z"/>
        <circle id="_Path_5" data-name="&lt;Path&gt;" class="cls-6" cx="275" cy="194" r="15"/>
    </g>
</svg>