<svg xmlns="http://www.w3.org/2000/svg" viewBox="0 0 320 320"><defs><style>.cls-1{isolation:isolate;}.cls-2{fill:#ff9811;}.cls-3{fill:#bf720d;}.cls-4{fill:#50412e;}.cls-5{opacity:0.56;mix-blend-mode:darken;}.cls-6{fill:#feb818;}.cls-7{fill:#fab20e;}.cls-8{fill:#1a1512;}.cls-9{fill:#282320;}</style></defs><title>Artboard 1 copy 2</title><g class="cls-1"><g id="Layer_6" data-name="Layer 6"><g id="_Group_" data-name="&lt;Group&gt;"><path id="_Compound_Path_" data-name="&lt;Compound Path&gt;" class="cls-2" d="M129.31,2.94A160,160,0,0,0,0,160c0,1.39,0,2.77.05,4.16h0A160,160,0,0,0,90.28,304.05h0a158.65,158.65,0,0,0,52.87,15.07A161.43,161.43,0,0,0,160,320V295a15,15,0,0,1-15-15c0-.22,0-.43,0-.64s0-.21,0-.32a6.82,6.82,0,0,1,.07-.79,2.85,2.85,0,0,1,0-.29c0-.26.08-.53.13-.79a5.78,5.78,0,0,1,.12-.57,4.05,4.05,0,0,1,.12-.47,9.43,9.43,0,0,1,.32-1c0-.14.09-.27.14-.41s.16-.41.25-.61a9.37,9.37,0,0,1,.4-.85c.14-.28.29-.55.45-.82s.24-.41.38-.61.19-.29.29-.43.24-.34.37-.5.21-.28.32-.41.31-.37.47-.54.32-.35.5-.52a4.44,4.44,0,0,1,.38-.37l.14-.13a3.68,3.68,0,0,1,.37-.32h0c.18-.16.37-.31.56-.45l.4-.3.58-.4c.27-.18.55-.35.83-.5l.32-.18q.45-.24.93-.45c.23-.11.46-.2.7-.29l.3-.11a10,10,0,0,1,1.06-.34l.38-.1c.42-.11.84-.2,1.28-.27h.08l.75-.09c.25,0,.51-.05.76-.06l.77,0V184.49a35,35,0,0,1,0-49V0A160.74,160.74,0,0,0,129.31,2.94ZM90,185a25,25,0,1,1-25-25A25,25,0,0,1,90,185ZM95,50A15,15,0,1,1,80,65,15,15,0,0,1,95,50Z"/><path id="_Compound_Path_2" data-name="&lt;Compound Path&gt;" class="cls-3" d="M318.26,136.3q-.42-2.78-.93-5.54a158.6,158.6,0,0,0-7.64-27.36A70,70,0,0,1,216.6,10.31,159.53,159.53,0,0,0,160,0V135.52A34.86,34.86,0,0,1,185,125l1.05,0q.38,0,.75,0l.55,0,.76.06.81.08c.41,0,.82.1,1.23.16l.79.13c.74.12,1.47.27,2.19.44s1.22.31,1.82.49c.27.07.53.15.79.24l.48.16,1,.35q.76.28,1.5.6c.32.13.63.27.94.42s.55.25.82.39.81.41,1.21.63,1,.55,1.47.84l.06,0c.46.28.92.57,1.36.87l1,.73c.34.25.68.5,1,.76s.63.5.94.76.57.49.85.74.71.65,1,1,.6.59.89.89l.12.13c.65.7,1.28,1.42,1.88,2.17l.19.24c.24.31.48.62.71.94s.53.73.78,1.1.43.65.64,1,.48.78.7,1.17.6,1.08.88,1.63.43.87.63,1.31a.59.59,0,0,1,0,.08c.16.35.31.7.45,1.06.29.69.56,1.4.8,2.12l.33,1c.13.41.24.82.35,1.24s.18.7.26,1.06a30.51,30.51,0,0,1,.6,3.33c.06.45.11.91.15,1.37l0,.3c0,.26,0,.53.05.8s0,.69,0,1c0,.17,0,.35,0,.53s0,.35,0,.53c0,.45,0,.89,0,1.34s0,.65-.05,1,0,.47,0,.71-.07.72-.11,1.08-.11.84-.17,1.26-.14.87-.23,1.3l-.12.61c-.07.33-.14.65-.22,1s-.1.43-.16.64c-.13.51-.28,1-.43,1.53a.14.14,0,0,0,0,.06c-.19.61-.4,1.21-.62,1.8-.07.19-.14.38-.22.56a31.71,31.71,0,0,1-1.42,3.14c-.25.49-.51,1-.79,1.45s-.38.66-.59,1l-.46.72c-.25.38-.51.76-.77,1.13s-.66.91-1,1.35c-.22.29-.45.58-.69.86s-.49.57-.74.85-.5.56-.76.83c-.42.44-.85.86-1.29,1.28l-1,.92c-.34.3-.69.59-1,.87q-1.19,1-2.43,1.8l-.9.59c-.8.5-1.61,1-2.45,1.4l-1.05.54-1.1.5c-.51.23-1,.44-1.55.64-.22.09-.43.17-.65.24-.37.14-.75.27-1.13.39l-1.16.35-1.06.28q-.72.18-1.44.33t-1.47.27c-.42.07-.84.13-1.27.18s-1,.11-1.43.15l-.45,0-.66,0-.54,0q-.63,0-1.26,0a34.89,34.89,0,0,1-25-10.51V265a15,15,0,0,1,13.82,20.83h0c-.15.35-.31.69-.49,1s-.33.61-.5.9-.25.41-.39.61-.17.25-.26.36l-.3.4c-.19.25-.38.49-.58.72a12.32,12.32,0,0,1-.94,1l-.48.45c-.32.28-.66.56-1,.81s-.41.29-.62.43a11.47,11.47,0,0,1-1.06.64l-.49.26c-.21.11-.42.2-.63.29a5.55,5.55,0,0,1-.56.24l-.51.19h0a9.32,9.32,0,0,1-1.06.33h0l-.39.1-.74.16-.75.12c-.38.05-.76.09-1.15.11s-.58,0-.88,0v25c3.78,0,7.54-.13,11.25-.39a160.52,160.52,0,0,0,25.19-3.78,157,157,0,0,0,23.88-7.6A160.27,160.27,0,0,0,318.26,136.3ZM275,209a15,15,0,1,1,15-15A15,15,0,0,1,275,209Z"/><circle id="_Path_" data-name="&lt;Path&gt;" class="cls-4" cx="95" cy="65" r="15"/><circle id="_Path_2" data-name="&lt;Path&gt;" class="cls-4" cx="160" cy="280" r="15"/><circle id="_Path_3" data-name="&lt;Path&gt;" class="cls-4" cx="65" cy="185" r="25"/><path id="_Path_4" data-name="&lt;Path&gt;" class="cls-4" d="M160,184.49A35,35,0,1,0,150,160,34.89,34.89,0,0,0,160,184.49Z"/><circle id="_Path_5" data-name="&lt;Path&gt;" class="cls-4" cx="275" cy="194" r="15"/></g><g class="cls-5"><path class="cls-6" d="M160.79,224.72c-.27-.41-.53-.82-.79-1.23A1558.89,1558.89,0,0,1,57,37.58a159.78,159.78,0,0,0-22.31,23c.26.63.53,1.25.8,1.88C65.32,131.56,105.18,194.78,150,255q3.79,5.1,7.68,10.14c5.32,6.94,10.74,13.8,16.18,20.65h0c6.61,8.32,13.23,16.6,19.74,25a26.77,26.77,0,0,1,2.88,5,157,157,0,0,0,23.88-7.6C200.22,280.56,179.36,253.38,160.79,224.72ZM318.26,136.3c-7.12,13.83-22.84,24.88-38.59,26.58-26.69,2.9-48.05-5.27-55.64-22.73C260,165,290.55,160,317.33,130.76a158.6,158.6,0,0,0-7.64-27.36,70.1,70.1,0,0,1-61.79-1.18A13.49,13.49,0,0,1,238,112.31c-7.5,2.09-12.56-3-16.51-8.85-.88-1.32-2.05-2.62-2.43-4.1-2-7.75-3.78-15.93,1.5-22.33a70.06,70.06,0,0,1-4-66.72,160.91,160.91,0,0,0-87.29-7.37,16.16,16.16,0,0,1,3.15,4C142,25.51,150.76,44.4,160,63.08q4.16,8.4,8.45,16.72Q180.51,103,193.13,126q12.36,22.42,25.28,44.52,28.76,49.16,60.62,96.45A159.42,159.42,0,0,0,320,160,161.15,161.15,0,0,0,318.26,136.3Z"/><path class="cls-6" d="M279,266.92a160.18,160.18,0,0,1-58.71,41.31c-20.1-27.67-41-54.85-59.53-83.51-.27-.41-.53-.82-.79-1.23A1558.89,1558.89,0,0,1,57,37.58,159.43,159.43,0,0,1,129.31,2.94a16.16,16.16,0,0,1,3.15,4C142,25.51,150.76,44.4,160,63.08q4.16,8.4,8.45,16.72Q180.51,103,193.13,126q12.36,22.42,25.28,44.52Q247.17,219.63,279,266.92Z"/><path class="cls-6" d="M196.44,315.83a160.52,160.52,0,0,1-25.19,3.78c-3.75.06-7.5.09-11.25.07-4.93,0-9.86-.15-14.77-.42-.69,0-1.38-.08-2.07-.14a158.65,158.65,0,0,1-52.87-15.07l-1.35-1.82-2-2.67-3.34-4.49c-2.22-3-4.45-6-6.66-9-1.1-1.5-2.21-3-3.3-4.52l-2.21-3.06q-1.92-2.67-3.81-5.37l-1.24-1.79c-.8-1.16-1.6-2.32-2.39-3.49q-8.56-12.66-16.89-25.48c-1.12-1.7-2.22-3.42-3.33-5.13-1.62-2.53-3.25-5.07-4.86-7.62q-2-3.21-4.07-6.44-8.09-12.9-15.88-26-1.84-3.09-3.66-6.19c-.11-.2-.23-.39-.35-.59q-1.7-2.91-3.38-5.82-3-5.26-6-10.55-1.24-2.19-2.48-4.39c-1-1.82-2-3.65-3-5.48h0c0-1.39,0-2.77,0-4.16A159.35,159.35,0,0,1,34.67,60.53c.26.63.53,1.25.8,1.88C65.32,131.56,105.18,194.78,150,255q3.79,5.1,7.68,10.14c5.32,6.94,10.74,13.8,16.18,20.65h0c6.61,8.32,13.23,16.6,19.74,25A26.77,26.77,0,0,1,196.44,315.83Z"/><path class="cls-6" d="M90.28,304.05A160,160,0,0,1,.05,164.17c1,1.83,2,3.66,3,5.48q1.23,2.21,2.48,4.39,3,5.29,6,10.55,1.68,2.91,3.38,5.82c.12.2.24.39.35.59q1.81,3.1,3.66,6.19,7.79,13.08,15.88,26,2,3.23,4.07,6.44c1.61,2.55,3.24,5.09,4.86,7.62,1.11,1.71,2.21,3.43,3.33,5.13Q55.42,255.2,64,267.85c.79,1.17,1.59,2.33,2.39,3.49l1.24,1.79q1.89,2.7,3.81,5.37l2.21,3.06c1.09,1.51,2.2,3,3.3,4.52,2.21,3,4.44,6,6.66,9L87,299.56l2,2.67C89.39,302.84,89.84,303.44,90.28,304.05Z"/><path class="cls-6" d="M247.9,102.22A13.49,13.49,0,0,1,238,112.31c-7.5,2.09-12.56-3-16.51-8.85-.88-1.32-2.05-2.62-2.43-4.1-2-7.75-3.78-15.93,1.5-22.33A70.22,70.22,0,0,0,247.9,102.22Z"/><path class="cls-6" d="M318.26,136.3c-7.12,13.83-22.84,24.88-38.59,26.58-26.69,2.9-48.05-5.27-55.64-22.73C260,165,290.55,160,317.33,130.76Q317.84,133.52,318.26,136.3Z"/><path class="cls-7" d="M160.79,224.72c-.27-.41-.53-.82-.79-1.23A1558.89,1558.89,0,0,1,57,37.58a159.78,159.78,0,0,0-22.31,23c.26.63.53,1.25.8,1.88C65.32,131.56,105.18,194.78,150,255q3.79,5.1,7.68,10.14c5.32,6.94,10.74,13.8,16.18,20.65h0c6.61,8.32,13.23,16.6,19.74,25a26.77,26.77,0,0,1,2.88,5,157,157,0,0,0,23.88-7.6C200.22,280.56,179.36,253.38,160.79,224.72ZM318.26,136.3c-7.12,13.83-22.84,24.88-38.59,26.58-26.69,2.9-48.05-5.27-55.64-22.73C260,165,290.55,160,317.33,130.76a158.6,158.6,0,0,0-7.64-27.36,70.1,70.1,0,0,1-61.79-1.18A13.49,13.49,0,0,1,238,112.31c-7.5,2.09-12.56-3-16.51-8.85-.88-1.32-2.05-2.62-2.43-4.1-2-7.75-3.78-15.93,1.5-22.33a70.06,70.06,0,0,1-4-66.72,160.91,160.91,0,0,0-87.29-7.37,16.16,16.16,0,0,1,3.15,4C142,25.51,150.76,44.4,160,63.08q4.16,8.4,8.45,16.72Q180.51,103,193.13,126q12.36,22.42,25.28,44.52,28.76,49.16,60.62,96.45A159.42,159.42,0,0,0,320,160,161.15,161.15,0,0,0,318.26,136.3Z"/><path class="cls-8" d="M279,266.92a160.18,160.18,0,0,1-58.71,41.31c-20.1-27.67-41-54.85-59.53-83.51-.27-.41-.53-.82-.79-1.23A1558.89,1558.89,0,0,1,57,37.58,159.43,159.43,0,0,1,129.31,2.94a16.16,16.16,0,0,1,3.15,4C142,25.51,150.76,44.4,160,63.08q4.16,8.4,8.45,16.72Q180.51,103,193.13,126q12.36,22.42,25.28,44.52Q247.17,219.63,279,266.92Z"/><path class="cls-9" d="M196.44,315.83a160.52,160.52,0,0,1-25.19,3.78c-3.75.06-7.5.09-11.25.07-4.93,0-9.86-.15-14.77-.42-.69,0-1.38-.08-2.07-.14a158.65,158.65,0,0,1-52.87-15.07l-1.35-1.82-2-2.67-3.34-4.49c-2.22-3-4.45-6-6.66-9-1.1-1.5-2.21-3-3.3-4.52l-2.21-3.06q-1.92-2.67-3.81-5.37l-1.24-1.79c-.8-1.16-1.6-2.32-2.39-3.49q-8.56-12.66-16.89-25.48c-1.12-1.7-2.22-3.42-3.33-5.13-1.62-2.53-3.25-5.07-4.86-7.62q-2-3.21-4.07-6.44-8.09-12.9-15.88-26-1.84-3.09-3.66-6.19c-.11-.2-.23-.39-.35-.59q-1.7-2.91-3.38-5.82-3-5.26-6-10.55-1.24-2.19-2.48-4.39c-1-1.82-2-3.65-3-5.48h0c0-1.39,0-2.77,0-4.16A159.35,159.35,0,0,1,34.67,60.53c.26.63.53,1.25.8,1.88C65.32,131.56,105.18,194.78,150,255q3.79,5.1,7.68,10.14c5.32,6.94,10.74,13.8,16.18,20.65h0c6.61,8.32,13.23,16.6,19.74,25A26.77,26.77,0,0,1,196.44,315.83Z"/><path class="cls-7" d="M90.28,304.05A160,160,0,0,1,.05,164.17c1,1.83,2,3.66,3,5.48q1.23,2.21,2.48,4.39,3,5.29,6,10.55,1.68,2.91,3.38,5.82c.12.2.24.39.35.59q1.81,3.1,3.66,6.19,7.79,13.08,15.88,26,2,3.23,4.07,6.44c1.61,2.55,3.24,5.09,4.86,7.62,1.11,1.71,2.21,3.43,3.33,5.13Q55.42,255.2,64,267.85c.79,1.17,1.59,2.33,2.39,3.49l1.24,1.79q1.89,2.7,3.81,5.37l2.21,3.06c1.09,1.51,2.2,3,3.3,4.52,2.21,3,4.44,6,6.66,9L87,299.56l2,2.67C89.39,302.84,89.84,303.44,90.28,304.05Z"/><path class="cls-9" d="M247.9,102.22A13.49,13.49,0,0,1,238,112.31c-7.5,2.09-12.56-3-16.51-8.85-.88-1.32-2.05-2.62-2.43-4.1-2-7.75-3.78-15.93,1.5-22.33A70.22,70.22,0,0,0,247.9,102.22Z"/><path class="cls-9" d="M318.26,136.3c-7.12,13.83-22.84,24.88-38.59,26.58-26.69,2.9-48.05-5.27-55.64-22.73C260,165,290.55,160,317.33,130.76Q317.84,133.52,318.26,136.3Z"/></g></g></g></svg>