<svg id="Layer_1" data-name="Layer 1" xmlns="http://www.w3.org/2000/svg" viewBox="0 0 198.89 188"><defs><style>.cls-1{fill:#fdb81a;stroke:#fdb81a;stroke-miterlimit:10;stroke-width:2.64px;}.cls-2{fill:#f8b218;}.cls-3{fill:#282320;}</style></defs><title>Artboard 5</title><path class="cls-1" d="M118.8,147.89l-7,.81a13.21,13.21,0,0,0-1.11-2.07c-3.62-4.66-7.38-9.21-10.9-13.94-11.19-15.06-21.15-30.86-28.61-48.15-.77-1.77-1.49-3.56-2.47-5.92-2.64,2.73-4.83,5-7,7.26C50.35,85.5,45,77.6,40.3,68.8c-1.2-2.24-2.59-4.39-3.71-6.67-.32-.65-.33-2,.1-2.38,4.66-3.91,9.56-7.41,15.71-8.69C58,49.88,62.76,51.57,67,55.23c4.68,4,6.87,9.48,8.59,15.19.06.22.19.42.79.61a46.72,46.72,0,0,0-.06-7.2c-1-6.66-3-13-6.9-18.69a2.53,2.53,0,0,1,.52-2.33,36.94,36.94,0,0,1,13.93-8.06c4.61-1.41,8.77-1.21,12.6,1.81s5.06,7.22,5.31,11.84c.35,6.4-1.73,12.09-5.2,17.35-.4.6-.75,1.22-1.1,1.84,0,.1.05.29.07.43l17.79,1.43,1.24.25,12.62,2.6,1.29.5c5.22,1.82,10.45,3.65,14.46,7.69a25,25,0,0,1,7.49,17.37,62.27,62.27,0,0,1-12.32,39A22.3,22.3,0,0,1,135,139.7a1.94,1.94,0,0,1-.38-.3,465.9,465.9,0,0,1-30.19-50.51c-3.12-6-5.91-12.18-9-18.2-.45-.87-1.76-2-2.53-1.9a48.78,48.78,0,0,0-15.6,4.42C75.57,74.08,75.06,75,76,77a388.61,388.61,0,0,0,26.58,48.13C107.6,132.93,113.36,140.31,118.8,147.89Zm5.71-55.2c0-2.37-1.5-5.2-3.35-5.63a4.09,4.09,0,0,0-3.23.67c-1.86,1.66-1.37,3.92-.82,6a3.37,3.37,0,0,0,.61,1c1,1.48,2.25,2.74,4.12,2.22C123.88,96.45,124.53,94.7,124.51,92.69Zm5.08-5.2c.48,3.14,1.9,5.83,4.09,6.31A4.24,4.24,0,0,0,137,92.74c1.58-1.52,1.38-4.71-.19-6.87-1-1.42-2.47-2.77-4.19-1.87C131.31,84.66,130.56,86.29,129.59,87.49Zm13.2,12.83c-7,8.45-15,10.21-24.45,3.65,1.9,4.37,7.24,6.41,13.91,5.69C137.17,109.12,142.07,104.94,142.79,100.32Z"/><path class="cls-1" d="M118.8,147.89c-5.44-7.58-11.2-15-16.26-22.78A388.61,388.61,0,0,1,76,77c-.9-1.94-.39-2.9,1.37-3.77a48.78,48.78,0,0,1,15.6-4.42c.77-.1,2.08,1,2.53,1.9,3.08,6,5.87,12.19,9,18.2a465.9,465.9,0,0,0,30.19,50.51,1.94,1.94,0,0,0,.38.3c-2.33,3.49-6.12,4.82-9.69,6.38A46,46,0,0,1,118.8,147.89Z"/><path class="cls-1" d="M61.72,85.88c2.2-2.26,4.39-4.53,7-7.26,1,2.36,1.7,4.15,2.47,5.92,7.46,17.29,17.42,33.09,28.61,48.15,3.52,4.73,7.28,9.28,10.9,13.94a13.21,13.21,0,0,1,1.11,2.07c-4.4,0-8.81.28-13.19,0a95.71,95.71,0,0,1-10.6-1.56,9.65,9.65,0,0,1-2.14-.9c-2.53-3.46-5.16-6.84-7.56-10.39a303.47,303.47,0,0,1-22.25-38c1.25-3,2.44-6,3.76-9A24.06,24.06,0,0,1,61.72,85.88Z"/><path class="cls-1" d="M56.1,97.88a303.47,303.47,0,0,0,22.25,38c2.4,3.55,5,6.93,7.56,10.39l-13.26-2.39a16.38,16.38,0,0,0-1.31-2.22c-6.28-7.62-12.28-15.43-16.54-24.43-.77-1.64-1.56-3.27-2.34-4.9Q54.28,105.11,56.1,97.88Z"/><path class="cls-1" d="M52.46,112.34c.78,1.63,1.57,3.26,2.34,4.9,4.26,9,10.26,16.81,16.54,24.43a16.38,16.38,0,0,1,1.31,2.22c-6.76-1-13.53-1.9-20.27-2.95-.64-.1-1.65-.92-1.67-1.44-.36-8.77-.56-17.54,1.07-26.23C51.85,112.93,52.23,112.65,52.46,112.34Z"/><path class="cls-1" d="M114.56,69.7l-1.24-.25c.54-3.42,1.23-6.83,1.53-10.27A4.75,4.75,0,0,0,113.42,56c-1.84-1.92-2.17-4.42-.5-6.13a4.06,4.06,0,0,1,6.09,0,3.94,3.94,0,0,1-.66,6c-1.34,1-1.54,2.13-1.76,3.63C116.11,63,115.26,66.33,114.56,69.7Z"/><path class="cls-1" d="M128.47,72.8l-1.29-.5q1.88-4.9,3.73-9.81a3.49,3.49,0,0,0-.61-4,3.7,3.7,0,0,1-.27-4.84c1.22-1.94,3.07-1.94,4.9-1.49a3.49,3.49,0,0,1,2.6,3.62,3.66,3.66,0,0,1-3,4c-2.05.43-1.66,2.27-2.19,3.58Z"/><path class="cls-1" d="M124.51,92.69c0,2-.63,3.76-2.67,4.33-1.87.52-3.14-.74-4.12-2.22a3.37,3.37,0,0,1-.61-1c-.55-2.13-1-4.39.82-6a4.09,4.09,0,0,1,3.23-.67C123,87.49,124.49,90.32,124.51,92.69Z"/><path class="cls-1" d="M129.59,87.49c1-1.2,1.72-2.83,3-3.49,1.72-.9,3.17.45,4.19,1.87,1.57,2.16,1.77,5.35.19,6.87a4.24,4.24,0,0,1-3.27,1.06C131.49,93.32,130.07,90.63,129.59,87.49Z"/><path class="cls-1" d="M142.79,100.32c-.72,4.62-5.62,8.8-10.54,9.34-6.67.72-12-1.32-13.91-5.69C127.83,110.53,135.83,108.77,142.79,100.32Z"/><path class="cls-2" d="M118.8,147.89l-7,.81a13.21,13.21,0,0,0-1.11-2.07c-3.62-4.66-7.38-9.21-10.9-13.94-11.19-15.06-21.15-30.86-28.61-48.15-.77-1.77-1.49-3.56-2.47-5.92-2.64,2.73-4.83,5-7,7.26C50.35,85.5,45,77.6,40.3,68.8c-1.2-2.24-2.59-4.39-3.71-6.67-.32-.65-.33-2,.1-2.38,4.66-3.91,9.56-7.41,15.71-8.69C58,49.88,62.76,51.57,67,55.23c4.68,4,6.87,9.48,8.59,15.19.06.22.19.42.79.61a46.72,46.72,0,0,0-.06-7.2c-1-6.66-3-13-6.9-18.69a2.53,2.53,0,0,1,.52-2.33,36.94,36.94,0,0,1,13.93-8.06c4.61-1.41,8.77-1.21,12.6,1.81s5.06,7.22,5.31,11.84c.35,6.4-1.73,12.09-5.2,17.35-.4.6-.75,1.22-1.1,1.84,0,.1.05.29.07.43l17.79,1.43,1.24.25,12.62,2.6,1.29.5c5.22,1.82,10.45,3.65,14.46,7.69a25,25,0,0,1,7.49,17.37,62.27,62.27,0,0,1-12.32,39A22.3,22.3,0,0,1,135,139.7a1.94,1.94,0,0,1-.38-.3,465.9,465.9,0,0,1-30.19-50.51c-3.12-6-5.91-12.18-9-18.2-.45-.87-1.76-2-2.53-1.9a48.78,48.78,0,0,0-15.6,4.42C75.57,74.08,75.06,75,76,77a388.61,388.61,0,0,0,26.58,48.13C107.6,132.93,113.36,140.31,118.8,147.89Zm5.71-55.2c0-2.37-1.5-5.2-3.35-5.63a4.09,4.09,0,0,0-3.23.67c-1.86,1.66-1.37,3.92-.82,6a3.37,3.37,0,0,0,.61,1c1,1.48,2.25,2.74,4.12,2.22C123.88,96.45,124.53,94.7,124.51,92.69Zm5.08-5.2c.48,3.14,1.9,5.83,4.09,6.31A4.24,4.24,0,0,0,137,92.74c1.58-1.52,1.38-4.71-.19-6.87-1-1.42-2.47-2.77-4.19-1.87C131.31,84.66,130.56,86.29,129.59,87.49Zm13.2,12.83c-7,8.45-15,10.21-24.45,3.65,1.9,4.37,7.24,6.41,13.91,5.69C137.17,109.12,142.07,104.94,142.79,100.32Z"/><path class="cls-3" d="M118.8,147.89c-5.44-7.58-11.2-15-16.26-22.78A388.61,388.61,0,0,1,76,77c-.9-1.94-.39-2.9,1.37-3.77a48.78,48.78,0,0,1,15.6-4.42c.77-.1,2.08,1,2.53,1.9,3.08,6,5.87,12.19,9,18.2a465.9,465.9,0,0,0,30.19,50.51,1.94,1.94,0,0,0,.38.3c-2.33,3.49-6.12,4.82-9.69,6.38A46,46,0,0,1,118.8,147.89Z"/><path class="cls-3" d="M61.72,85.88c2.2-2.26,4.39-4.53,7-7.26,1,2.36,1.7,4.15,2.47,5.92,7.46,17.29,17.42,33.09,28.61,48.15,3.52,4.73,7.28,9.28,10.9,13.94a13.21,13.21,0,0,1,1.11,2.07c-4.4,0-8.81.28-13.19,0a95.71,95.71,0,0,1-10.6-1.56,9.65,9.65,0,0,1-2.14-.9c-2.53-3.46-5.16-6.84-7.56-10.39a303.47,303.47,0,0,1-22.25-38c1.25-3,2.44-6,3.76-9A24.06,24.06,0,0,1,61.72,85.88Z"/><path class="cls-2" d="M56.1,97.88a303.47,303.47,0,0,0,22.25,38c2.4,3.55,5,6.93,7.56,10.39l-13.26-2.39a16.38,16.38,0,0,0-1.31-2.22c-6.28-7.62-12.28-15.43-16.54-24.43-.77-1.64-1.56-3.27-2.34-4.9Q54.28,105.11,56.1,97.88Z"/><path class="cls-3" d="M52.46,112.34c.78,1.63,1.57,3.26,2.34,4.9,4.26,9,10.26,16.81,16.54,24.43a16.38,16.38,0,0,1,1.31,2.22c-6.76-1-13.53-1.9-20.27-2.95-.64-.1-1.65-.92-1.67-1.44-.36-8.77-.56-17.54,1.07-26.23C51.85,112.93,52.23,112.65,52.46,112.34Z"/><path class="cls-3" d="M114.56,69.7l-1.24-.25c.54-3.42,1.23-6.83,1.53-10.27A4.75,4.75,0,0,0,113.42,56c-1.84-1.92-2.17-4.42-.5-6.13a4.06,4.06,0,0,1,6.09,0,3.94,3.94,0,0,1-.66,6c-1.34,1-1.54,2.13-1.76,3.63C116.11,63,115.26,66.33,114.56,69.7Z"/><path class="cls-3" d="M128.47,72.8l-1.29-.5q1.88-4.9,3.73-9.81a3.49,3.49,0,0,0-.61-4,3.7,3.7,0,0,1-.27-4.84c1.22-1.94,3.07-1.94,4.9-1.49a3.49,3.49,0,0,1,2.6,3.62,3.66,3.66,0,0,1-3,4c-2.05.43-1.66,2.27-2.19,3.58Z"/><path class="cls-3" d="M124.51,92.69c0,2-.63,3.76-2.67,4.33-1.87.52-3.14-.74-4.12-2.22a3.37,3.37,0,0,1-.61-1c-.55-2.13-1-4.39.82-6a4.09,4.09,0,0,1,3.23-.67C123,87.49,124.49,90.32,124.51,92.69Z"/><path class="cls-3" d="M129.59,87.49c1-1.2,1.72-2.83,3-3.49,1.72-.9,3.17.45,4.19,1.87,1.57,2.16,1.77,5.35.19,6.87a4.24,4.24,0,0,1-3.27,1.06C131.49,93.32,130.07,90.63,129.59,87.49Z"/><path class="cls-3" d="M142.79,100.32c-.72,4.62-5.62,8.8-10.54,9.34-6.67.72-12-1.32-13.91-5.69C127.83,110.53,135.83,108.77,142.79,100.32Z"/></svg>