<?xml version="1.0" encoding="UTF-8" standalone="no"?>
<svg width="156px" height="48px" viewBox="0 0 156 48" version="1.1" xmlns="http://www.w3.org/2000/svg"
     xmlns:xlink="http://www.w3.org/1999/xlink">
    <!-- Generator: Sketch 39 (31667) - http://www.bohemiancoding.com/sketch -->
    <title>logo_header</title>
    <desc>Created with Sketch.</desc>
    <defs>
        <polygon id="path-1"
                 points="0.0429832942 47.3142857 122.237492 47.3142857 122.237492 0.653578061 0.0429832942 0.653578061 0.0429832942 47.3142857"></polygon>
        <polygon id="path-3"
                 points="-2.40536893e-14 8.46035441 -2.40536893e-14 18.7452304 18.7672255 18.7452304 18.7672255 0.00165399092 -2.40536893e-14 0.00165399092 -2.40536893e-14 8.46035441 10.8547547 8.46035441 10.8547547 0.00165678754 -8.4150415e-05 0.00165678754 -8.4150415e-05 8.46035441"></polygon>
        <polygon id="path-5"
                 points="16.5232145 13.2318661 16.5232145 0.112733815 0.242815943 0.112733815 0.242815943 13.2318661 16.5232145 13.2318661"></polygon>
    </defs>
    <g id="Symbols" stroke="none" stroke-width="1" fill="none" fill-rule="evenodd">
        <g id="Header" transform="translate(-48.000000, -24.000000)">
            <g id="logo_header" transform="translate(48.000000, 24.000000)">
                <g id="Line">
                    <path d="M0.700731429,9.49357714 C0.486788571,9.49357714 0.275588571,9.39620571 0.138445714,9.21106286 C-0.09264,8.90043429 -0.0274971429,8.46226286 0.282445714,8.23117714 C0.917417143,7.75940571 1.57501714,7.30272 2.23810286,6.87414857 C2.56313143,6.66432 2.99650286,6.75757714 3.20633143,7.08260571 C3.41616,7.40763429 3.32290286,7.84100571 2.99787429,8.05083429 C2.36084571,8.46226286 1.72861714,8.90112 1.11833143,9.35506286 C0.992845714,9.44832 0.846102857,9.49357714 0.700731429,9.49357714"
                          id="Fill-1" fill="#FFB511"></path>
                    <g id="Group-5" transform="translate(8.228571, 0.032023)">
                        <mask id="mask-2" fill="white">
                            <use xlink:href="#path-1"></use>
                        </mask>
                        <g id="Clip-4"></g>
                        <path d="M12.32064,2.22946286 C11.96064,2.22946286 11.6548114,1.95380571 11.6239543,1.58900571 C11.59104,1.20363429 11.8762971,0.864205714 12.2616686,0.831291429 C13.8353829,0.696891429 15.4666971,0.63792 17.0932114,0.65712 C17.4799543,0.66192 17.7898971,0.979405714 17.7850971,1.36614857 C17.7802971,1.75289143 17.4559543,2.06214857 17.0760686,2.05803429 C15.4948114,2.03746286 13.9087543,2.09643429 12.3809829,2.22672 C12.3610971,2.22877714 12.3405257,2.22946286 12.32064,2.22946286 M28.89984,3.45757714 C28.8497829,3.45757714 28.79904,3.45140571 28.7482971,3.44043429 C27.2068114,3.09963429 25.6474971,2.81712 24.1114971,2.60112 C23.7288686,2.54763429 23.4621257,2.19380571 23.5162971,1.81049143 C23.5697829,1.42717714 23.92224,1.15906286 24.3069257,1.21460571 C25.8778971,1.43540571 27.47424,1.72477714 29.0506971,2.07312 C29.4285257,2.15677714 29.6664686,2.53049143 29.5828114,2.90763429 C29.5108114,3.23472 29.22144,3.45757714 28.89984,3.45757714 M0.743725714,4.87494857 C0.46464,4.87494857 0.20064,4.70626286 0.0916114286,4.43060571 C-0.0496457143,4.07060571 0.127268571,3.66397714 0.487268571,3.52272 C1.96909714,2.93917714 3.52224,2.43792 5.10349714,2.03197714 C5.47858286,1.93392 5.85915429,2.16157714 5.95584,2.53597714 C6.05184,2.91106286 5.82624,3.29232 5.45115429,3.38832 C3.92612571,3.77986286 2.42852571,4.26329143 1.00018286,4.82557714 C0.91584,4.85917714 0.828754286,4.87494857 0.743725714,4.87494857 M40.2237257,7.09872 C40.1325257,7.09872 40.0392686,7.08089143 39.9501257,7.04249143 C38.5313829,6.43906286 37.0516114,5.87129143 35.5512686,5.35563429 C35.1857829,5.22946286 34.9917257,4.83106286 35.1172114,4.46557714 C35.2426971,4.10009143 35.6410971,3.90466286 36.0072686,4.03083429 C37.5384686,4.55746286 39.0490971,5.13689143 40.4980114,5.75403429 C40.8538971,5.90489143 41.01984,6.31632 40.8682971,6.67220571 C40.7551543,6.93894857 40.4959543,7.09872 40.2237257,7.09872 M50.66784,12.7743771 C50.5327543,12.7743771 50.3962971,12.7352914 50.2762971,12.6543771 C48.9775543,11.7752914 47.6321829,10.9394057 46.2778971,10.1700343 C45.9418971,9.97872 45.8239543,9.55152 46.0152686,9.21483429 C46.2065829,8.87883429 46.6337829,8.76157714 46.9704686,8.95220571 C48.3556114,9.74009143 49.7325257,10.5951771 51.0607543,11.4941486 C51.3809829,11.7108343 51.4653257,12.1462629 51.24864,12.4664914 C51.1128686,12.66672 50.8927543,12.7743771 50.66784,12.7743771 M76.56864,37.29552 C76.4074971,37.29552 76.2456686,37.2399771 76.1133257,37.1268343 C74.9860114,36.1613486 73.8305829,35.0895771 72.5818971,33.8498057 C72.3069257,33.5775771 72.3055543,33.13392 72.5777829,32.8596343 C72.8500114,32.5853486 73.2936686,32.5832914 73.5679543,32.85552 C74.79264,34.0706057 75.9233829,35.1204343 77.02464,36.0632914 C77.3181257,36.3149486 77.3524114,36.7572343 77.1007543,37.05072 C76.96224,37.2125486 76.7661257,37.29552 76.56864,37.29552 M86.6109257,43.5869486 C86.5231543,43.5869486 86.4333257,43.5704914 86.3476114,43.53552 C84.86784,42.9341486 83.4031543,42.2079771 81.9940114,41.3789486 C81.6607543,41.1821486 81.5496686,40.7528914 81.7457829,40.42032 C81.9418971,40.0863771 82.3711543,39.9759771 82.7044114,40.1714057 C84.0545829,40.9668343 85.45824,41.6621486 86.8749257,42.2381486 C87.2328686,42.38352 87.4049829,42.7922057 87.2596114,43.1501486 C87.1492114,43.4223771 86.8872686,43.5869486 86.6109257,43.5869486 M117.01824,45.65712 C116.708983,45.65712 116.426469,45.4514057 116.342126,45.13872 C116.242011,44.7650057 116.463497,44.3810057 116.836526,44.2808914 C118.354697,43.8728914 119.848869,43.3743771 121.27584,42.8004343 C121.633783,42.6557486 122.042469,42.82992 122.186469,43.1885486 C122.331154,43.5471771 122.157669,43.9551771 121.798354,44.0998629 C120.319954,44.6943771 118.772297,45.21072 117.199954,45.63312 C117.139611,45.6495771 117.077897,45.65712 117.01824,45.65712 M98.1055543,46.6301486 C98.07264,46.6301486 98.0397257,46.6280914 98.0061257,46.6226057 C96.4145829,46.3956343 94.8175543,46.0925486 93.2609829,45.7222629 C92.8845257,45.6324343 92.6520686,45.2546057 92.7418971,44.8788343 C92.8317257,44.5023771 93.2088686,44.2706057 93.58464,44.3597486 C95.1007543,44.7197486 96.6545829,45.0152914 98.2042971,45.2367771 C98.5869257,45.2909486 98.8529829,45.6461486 98.7981257,46.0287771 C98.7480686,46.3784914 98.4484114,46.6301486 98.1055543,46.6301486 M105.33984,47.3144914 L105.230811,47.3144914 C104.844069,47.3144914 104.530697,47.01552 104.530697,46.6287771 C104.530697,46.2420343 104.844069,45.9430629 105.230811,45.9430629 L105.34464,45.9430629 C106.882011,45.9430629 108.423497,45.7716343 109.921783,45.6248914 C110.30304,45.5885486 110.649326,45.82032 110.68704,46.2050057 C110.724754,46.5903771 110.442926,46.9908343 110.05824,47.0285486 C108.514697,47.1794057 106.927269,47.3144914 105.33984,47.3144914"
                              id="Fill-3" fill="#FFB511" mask="url(#mask-2)"></path>
                    </g>
                    <path d="M136.150423,40.8717257 C135.921394,40.8717257 135.69648,40.7592686 135.562766,40.5528686 C135.351566,40.2285257 135.444137,39.7951543 135.76848,39.5839543 C136.407566,39.1690971 137.039794,38.7295543 137.648023,38.2769829 C137.958651,38.0465829 138.397509,38.11104 138.627909,38.4209829 C138.858994,38.7316114 138.794537,39.1697829 138.483909,39.4008686 C137.852366,39.8705829 137.194766,40.3279543 136.530994,40.7585829 C136.413737,40.8353829 136.280709,40.8717257 136.150423,40.8717257"
                          id="Fill-6" fill="#FFB511"></path>
                </g>
                <g id="Letters" transform="translate(6.171429, 10.971429)">
                    <path d="M2.79154286,2.48784 C2.79154286,1.79046857 2.76342857,1.20486857 2.62422857,0.814011429 C3.68434286,0.451268571 5.16274286,0.283954286 6.36205714,0.283954286 C9.84891429,0.283954286 11.328,2.93424 11.328,5.77926857 C11.328,6.81195429 11.1325714,7.87138286 10.7698286,8.84852571 C12.0528,7.00669714 12.6946286,4.49629714 12.6946286,2.45972571 C12.6946286,1.87412571 12.6384,1.28852571 12.5273143,0.814011429 C13.7547429,0.451268571 14.8704,0.283954286 15.8749714,0.283954286 C19.0827429,0.283954286 20.4774857,1.92966857 20.4774857,3.88258286 C20.4774857,6.53286857 17.9389714,9.76875429 13.8658286,10.4380114 C17.6043429,11.1079543 17.9389714,14.03664 17.9389714,16.5196114 C17.9389714,18.8908114 18.1062857,19.7273829 18.1062857,19.7273829 C18.1062857,19.7273829 16.6834286,20.25744 14.3684571,20.25744 C10.8816,20.25744 9.40251429,17.6352686 9.40251429,14.79024 C9.40251429,13.5065829 9.70971429,12.1954971 10.2672,11.0524114 C9.06788571,12.27984 7.98034286,14.79024 7.98034286,17.4960686 C7.98034286,18.2215543 8.064,18.9744686 8.23131429,19.7273829 C8.23131429,19.7273829 6.75291429,20.25744 4.88365714,20.25744 C1.78697143,20.25744 0.281142857,18.3045257 0.281142857,16.1013257 C0.281142857,13.4791543 2.40068571,10.5223543 6.44571429,10.04784 C3.09805714,9.21058286 2.79154286,6.36555429 2.79154286,3.96624 L2.79154286,2.48784 Z"
                          id="Fill-41" fill="#000000"></path>
                    <path d="M36.1064914,13.5142629 C36.1064914,16.1645486 32.3960914,17.7266057 27.6262629,17.7266057 C22.4930057,17.7266057 19.7316343,15.8573486 19.7316343,11.8685486 C19.7316343,6.56797714 22.1028343,3.02557714 30.4157486,3.02557714 C35.1300343,3.02557714 37.5574629,4.83860571 37.5574629,7.23792 C37.5574629,9.88820571 34.65552,11.0312914 32.0614629,11.0312914 C30.9176914,11.0312914 29.8575771,10.8084343 29.1046629,10.4175771 C29.4392914,9.72020571 29.7464914,8.82809143 29.7464914,8.18626286 C29.7464914,7.68363429 29.5784914,7.34900571 29.04912,7.34900571 C27.9046629,7.34900571 27.2916343,9.88820571 27.2916343,11.3103771 C27.2916343,13.01232 28.4628343,13.59792 29.8856914,13.59792 C32.8424914,13.59792 34.7954057,11.8404343 34.7954057,11.8404343 C35.4927771,11.98032 36.1064914,12.6214629 36.1064914,13.5142629"
                          id="Fill-43" fill="#000000"></path>
                    <path d="M47.0148343,12.8607086 C47.2102629,11.9123657 47.29392,11.2424229 47.29392,10.7685943 C47.29392,10.0431086 47.0703771,9.82025143 46.5965486,9.82025143 C45.81552,9.82025143 45.4246629,10.46208 44.9508343,12.8607086 C44.7272914,13.9489371 44.61552,14.6737371 44.61552,15.1482514 C44.61552,15.79008 44.8109486,15.9848229 45.2573486,15.9848229 C46.0383771,15.9848229 46.5128914,15.34368 47.0148343,12.8607086 M44.61552,20.1978514 C40.1240914,20.1978514 37.2790629,18.3285943 37.2790629,14.3391086 C37.2790629,9.03922286 39.73392,5.49613714 47.2658057,5.49613714 C51.6735771,5.49613714 54.6022629,7.47716571 54.6022629,11.3823086 C54.6022629,16.6821943 52.1474057,20.1978514 44.61552,20.1978514"
                          id="Fill-45" fill="#000000"></path>
                    <path d="M65.2149257,10.2846857 C65.4103543,9.33634286 65.4940114,8.6664 65.4940114,8.19257143 C65.4940114,7.46708571 65.2704686,7.24422857 64.79664,7.24422857 C64.0156114,7.24422857 63.6247543,7.88605714 63.1509257,10.2846857 C62.9273829,11.3729143 62.8156114,12.0977143 62.8156114,12.5722286 C62.8156114,13.2140571 63.01104,13.4088 63.45744,13.4088 C64.2384686,13.4088 64.7129829,12.7676571 65.2149257,10.2846857 M62.8156114,17.6218286 C58.3241829,17.6218286 55.4791543,15.7525714 55.4791543,11.7630857 C55.4791543,6.4632 57.9340114,2.92011429 65.4658971,2.92011429 C69.8736686,2.92011429 72.8023543,4.90114286 72.8023543,8.80628571 C72.8023543,14.1061714 70.3474971,17.6218286 62.8156114,17.6218286"
                          id="Fill-47" fill="#000000"></path>
                    <path d="M81.7154743,10.7713371 C83.47296,10.4922514 84.6167314,9.04196571 84.6167314,7.36813714 C84.6167314,6.28059429 83.8912457,5.88973714 83.1938743,5.88973714 C83.0539886,5.88973714 82.9429029,5.88973714 82.8037029,5.91785143 C82.58016,7.28448 82.1618743,8.98573714 81.7154743,10.7713371 M80.4318171,17.4385371 C81.8827886,17.3267657 83.4448457,15.8483657 83.4448457,13.8680229 C83.4448457,13.0869943 83.1102171,12.4170514 81.8272457,12.4170514 C81.6592457,12.4170514 81.5200457,12.4170514 81.3246171,12.4451657 C80.9344457,14.1471086 80.5998171,15.87648 80.4318171,17.4385371 M91.2277029,14.8719086 C91.2277029,20.0888229 85.0350171,21.2325943 78.4795886,21.2325943 C74.9365029,21.2325943 72.5378743,20.8143086 72.5378743,17.1875657 C72.5378743,13.9235657 75.02016,8.12105143 75.02016,3.37933714 C75.02016,2.79305143 74.9927314,2.23488 74.9090743,1.67739429 C76.7221029,1.48196571 78.9815314,1.28653714 81.24096,1.28653714 C86.42976,1.28653714 91.61856,2.29110857 91.61856,6.39168 C91.61856,10.8275657 87.2663314,11.3850514 86.1787886,11.4687086 C87.18336,11.5523657 91.2277029,11.9987657 91.2277029,14.8719086"
                          id="Fill-49" fill="#FFB511"></path>
                    <path d="M101.943497,6.49776 C101.943497,5.99581714 101.692526,5.60496 101.246126,5.60496 C100.492526,5.60496 100.102354,6.19056 99.6559543,8.31078857 C101.301669,8.22713143 101.943497,7.25067429 101.943497,6.49776 M108.387154,11.9094171 C108.387154,14.8943314 104.007497,15.98256 99.8232686,15.98256 C95.1370971,15.98256 91.92864,14.0015314 91.92864,10.1238171 C91.92864,4.82393143 94.7736686,1.28153143 102.612754,1.28153143 C107.32704,1.28153143 109.754469,3.09456 109.754469,5.49318857 C109.754469,8.72907429 105.374811,10.1519314 101.692526,10.1519314 C100.911497,10.1519314 100.186011,10.0682743 99.5167543,9.95650286 C99.6559543,11.37936 100.771611,11.8538743 102.082697,11.8538743 C105.039497,11.8538743 107.383269,10.2355886 107.383269,10.2355886 C108.024411,10.6264457 108.387154,11.2120457 108.387154,11.9094171"
                          id="Fill-51" fill="#FFB511"></path>
                    <path d="M119.001189,11.7755657 C119.001189,11.2736229 118.750217,10.8827657 118.303817,10.8827657 C117.550217,10.8827657 117.160046,11.4683657 116.713646,13.5885943 C118.35936,13.5049371 119.001189,12.52848 119.001189,11.7755657 M125.444846,17.1872229 C125.444846,20.1721371 121.065189,21.2603657 116.88096,21.2603657 C112.194789,21.2603657 108.986331,19.2793371 108.986331,15.4016229 C108.986331,10.1017371 111.83136,6.55933714 119.670446,6.55933714 C124.384731,6.55933714 126.81216,8.37236571 126.81216,10.7709943 C126.81216,14.00688 122.432503,15.4297371 118.750217,15.4297371 C117.969189,15.4297371 117.243703,15.34608 116.574446,15.2343086 C116.713646,16.6571657 117.829303,17.13168 119.140389,17.13168 C122.097189,17.13168 124.44096,15.5133943 124.44096,15.5133943 C125.082103,15.9042514 125.444846,16.4898514 125.444846,17.1872229"
                          id="Fill-53" fill="#FFB511"></path>
                </g>
                <g id="Bee" transform="translate(137.142857, 20.571429)">
                    <path d="M13.7052134,8.17190048 L13.5921714,7.98086453 C13.6112455,7.97011359 15.4920072,6.85890736 15.7461415,4.02231294 L15.9699816,4.04188517 C15.7051883,6.9978426 13.7868393,8.12531307 13.7052134,8.17190048"
                          id="Fill-1" fill="#231F1F"></path>
                    <path d="M16.5257951,3.98016374 C16.4624018,4.2723688 16.1698388,4.45844278 15.8725074,4.39586679 C15.5754564,4.33356646 15.386118,4.04632337 15.4495113,3.75411831 C15.5129046,3.46191325 15.8054675,3.27583927 16.102799,3.3381396 C16.39985,3.40071559 16.5894689,3.68795868 16.5257951,3.98016374"
                          id="Fill-3" fill="#231F1F"></path>
                    <path d="M15.9866434,3.43666232 C15.903054,3.43666232 15.8214281,3.46036953 15.7496197,3.50585428 C15.6514442,3.56843027 15.5838434,3.6646374 15.5594398,3.77710879 C15.50923,4.00921884 15.6601398,4.23857225 15.8963219,4.28819198 C16.1325041,4.33698471 16.3653203,4.18895252 16.416091,3.95684247 C16.4404946,3.84464675 16.4186155,3.72941872 16.3549417,3.63321158 C16.2915484,3.53672877 16.1936534,3.47029347 16.0792088,3.4463106 C16.0483537,3.43969464 16.0174985,3.43666232 15.9866434,3.43666232 M15.9877654,4.51837238 C15.9420437,4.51837238 15.8954804,4.51368607 15.8491977,4.50403779 C15.4921194,4.42905687 15.2635108,4.08199445 15.3398072,3.73107271 C15.4161036,3.3798753 15.7678523,3.15438121 16.1260526,3.23046479 C16.2991219,3.26657692 16.4475072,3.36691904 16.5437191,3.51302157 C16.6399311,3.6591241 16.6724693,3.83306881 16.6357236,4.00315421 C16.5689643,4.3085912 16.2935119,4.51837238 15.9877654,4.51837238"
                          id="Fill-5" fill="#231F1F"></path>
                    <g id="Group-9" transform="translate(0.000000, 0.273984)">
                        <mask id="mask-4" fill="white">
                            <use xlink:href="#path-3"></use>
                        </mask>
                        <g id="Clip-8"></g>
                    </g>
                    <path d="M7.02759751,0.73117425 C6.48370532,1.0068394 5.92634907,1.40214323 5.3628218,1.93224732 C5.55580675,2.15415777 5.7496332,2.45049781 5.91316551,2.76227509 C6.48202231,3.84591481 6.83573456,5.35821384 6.65509167,6.69050352 C6.57879529,6.07108392 6.38833485,5.45359398 6.10025993,4.90419333 C5.30531901,3.38968898 3.76452491,2.38516517 1.8761896,3.34227457 C1.2265484,3.67141877 0.47256068,4.16651338 -8.4150415e-05,4.65030572 C0.184766261,4.82011546 0.363445642,5.12417412 0.558113602,5.49521942 L0.971011638,6.28224343 C1.59737123,7.47532221 2.70955921,8.93028288 4.49270651,8.71250741 C4.49018199,8.68080592 6.01695102,7.54506549 6.93867857,7.21068366 C7.90865235,6.85865926 8.90611527,6.66955297 9.62532082,5.87811831 C9.6415899,5.86020008 9.65954198,5.85358411 9.67749407,5.85193012 C10.9173102,4.40992571 11.1386258,2.55111559 10.5254498,1.38284667 C9.97987456,0.343589046 8.76474257,-0.149300247 7.02759751,0.73117425"
                          id="Fill-7" fill="#FFC450"></path>
                    <g id="Group-12" transform="translate(2.244011, 5.787287)">
                        <mask id="mask-6" fill="white">
                            <use xlink:href="#path-5"></use>
                        </mask>
                        <g id="Clip-11"></g>
                        <path d="M15.6608691,2.50747779 C14.5871098,1.0249506 12.4224806,0.720616275 10.8373673,0.383202128 C6.46799725,-0.546616431 1.90704475,0.818477404 0.747452036,6.0806495 C0.348298568,7.89094256 0.11351891,10.176758 0.31828492,11.8947032 C0.964279605,11.8120037 1.87310409,11.9614142 2.94377787,12.1893893 L5.21443656,12.6723546 C8.72771639,13.4202342 13.4541647,14.1278666 15.4204794,9.77153023 C17.0945116,6.06355826 16.6011097,3.805585 15.6608691,2.50747779"
                              id="Fill-10" fill="#FFB602" mask="url(#mask-6)"></path>
                    </g>
                    <path d="M2.80467723,12.8234467 C2.80467723,12.8234467 3.09920368,14.6279508 6.20182948,18.1923012 C6.20182948,18.1923012 3.7109772,17.5425584 2.56232404,17.682045 C2.56232404,17.682045 2.24704048,15.0260113 2.80467723,12.8234467"
                          id="Fill-13" fill="#231F1F"></path>
                    <path d="M5.48411059,7.55402461 C5.48411059,7.55402461 6.94243729,12.2276516 12.5847226,18.9864098 C12.5847226,18.9864098 11.0400015,19.1501549 8.43246063,18.6682922 C7.05547934,17.3539208 3.49227027,11.29866 3.39297278,10.5185277 C3.39297278,10.5185277 3.64402152,9.24633298 5.48411059,7.55402461"
                          id="Fill-15" fill="#231F1F"></path>
                    <path d="M9.64372171,5.94372662 C9.64372171,5.94372662 12.2933378,11.8818297 16.2472853,17.5500565 C16.2472853,17.5500565 15.4803945,18.3767763 13.6767706,18.8252835 C12.3000698,17.5111877 8.59156102,11.6709458 6.46676304,6.91406796 C6.46676304,6.91406796 7.64907637,6.10058009 9.64372171,5.94372662"
                          id="Fill-17" fill="#231F1F"></path>
                    <path d="M13.7320294,11.0165719 C13.8158993,11.2856211 13.6801366,11.5651455 13.4288074,11.6412291 C13.1771976,11.717037 12.9051113,11.5601836 12.8212414,11.2911344 C12.737091,11.0220852 12.8728536,10.7425607 13.1244634,10.6667528 C13.3760731,10.5909449 13.6481595,10.7475227 13.7320294,11.0165719"
                          id="Fill-19" fill="#FFDA94"></path>
                    <path d="M17.9411209,9.83126687 C18.0249908,10.1003161 17.8892282,10.3798405 17.6378989,10.4559241 C17.3862892,10.531732 17.1142028,10.3748785 17.0303329,10.1058294 C16.9461825,9.83678017 17.0819452,9.5572557 17.3335549,9.48144779 C17.5851647,9.40563987 17.857251,9.56221768 17.9411209,9.83126687"
                          id="Fill-21" fill="#FFDA94"></path>
                    <path d="M17.4946749,9.91724683 C17.4946749,9.91724683 17.505895,9.94150536 17.5238471,9.98809277 C17.5415187,10.0352315 17.5667638,10.1046991 17.5889234,10.1964956 C17.6335231,10.378159 17.6767203,10.6546511 17.618376,10.979109 C17.5908869,11.1409244 17.5356281,11.3123882 17.4478312,11.4769603 C17.3608758,11.641808 17.2427847,11.8000398 17.098046,11.9362184 C16.9541488,12.0734996 16.7883724,12.1936897 16.6088516,12.2901725 C16.4298917,12.3880336 16.2385897,12.4652198 16.0436413,12.5258662 L16.0071761,12.5379954 L15.9861385,12.5429574 L15.9771624,12.5448871 L15.9589298,12.5484707 L15.8865605,12.5633566 C15.8397168,12.5738319 15.78558,12.5809992 15.7345287,12.5892691 C15.6313042,12.6055334 15.5303237,12.614906 15.4276602,12.6193167 C15.2231747,12.6295163 15.0186892,12.614079 14.8234602,12.5757616 C14.4315998,12.5018833 14.0826561,12.317739 13.8391809,12.0988608 C13.5912177,11.8824637 13.445357,11.6423594 13.3687801,11.4700686 C13.3297904,11.3835098 13.3076308,11.3123882 13.2950082,11.2635954 C13.2821051,11.2150784 13.2778976,11.1888902 13.2778976,11.1888902 C13.2778976,11.1888902 13.2893982,11.212873 13.3112773,11.2575308 C13.3328759,11.3019129 13.3701826,11.3642132 13.4209533,11.4394698 C13.4722851,11.5141751 13.5410079,11.5996313 13.6262803,11.6892224 C13.7123943,11.7779866 13.8178628,11.8678534 13.9390394,11.9524826 C14.0610575,12.0362849 14.2021497,12.1096118 14.3553034,12.1710851 C14.5092987,12.2306288 14.6775995,12.2711516 14.8529129,12.2970641 C15.0285068,12.3227009 15.2119547,12.321874 15.3973661,12.309469 C15.489651,12.3025774 15.58418,12.2909995 15.675343,12.2763892 C15.7213452,12.2683949 15.7653839,12.2626059 15.8147521,12.2513037 L15.9053541,12.2320071 C15.9053541,12.2320071 16.3045076,12.1236707 16.4697229,12.0409712 C16.6346577,11.9582716 16.7889334,11.8488326 16.9210496,11.7349828 C17.0520437,11.6205818 17.1690128,11.4901922 17.2562487,11.3534623 C17.3429237,11.2167324 17.4105245,11.0717325 17.4520387,10.9308676 C17.4935529,10.7902784 17.5185175,10.6527215 17.5280546,10.5294991 C17.5370306,10.4062768 17.5367501,10.2954594 17.5305791,10.2047656 C17.5238471,10.1143474 17.515993,10.0415718 17.5072975,9.99305474 C17.4991629,9.94398635 17.4946749,9.91724683 17.4946749,9.91724683"
                          id="Fill-23" fill="#231F1F"></path>
                    <path d="M14.4836328,9.56555323 C14.6050899,10.0168171 14.4384721,10.451541 14.111127,10.5364459 C13.7840624,10.6216264 13.4202521,10.3250107 13.298795,9.87374687 C13.1773379,9.42248301 13.3439557,8.98803473 13.6713008,8.9028542 C13.9983654,8.81767367 14.3621757,9.11428937 14.4836328,9.56555323"
                          id="Fill-25" fill="#231F1F"></path>
                    <path d="M16.6738718,9.07147857 C16.7953289,9.52274243 16.6287111,9.95746637 16.3013659,10.0423712 C15.9743013,10.1275518 15.610491,9.83093607 15.4890339,9.37967221 C15.3675768,8.92868402 15.5341947,8.49396008 15.8615398,8.40877955 C16.1886044,8.32359901 16.5524147,8.62049038 16.6738718,9.07147857"
                          id="Fill-27" fill="#231F1F"></path>
                    <path d="M12.9326774,6.19262469 L12.7114812,6.1237084 C12.9876854,5.32951709 13.0674324,4.46144753 12.9478118,3.54375823 L13.1791947,3.51646738 C13.3028899,4.4672365 13.2199413,5.36755888 12.9326774,6.19262469"
                          id="Fill-29" fill="#231F1F"></path>
                    <path d="M13.6927311,3.34205404 C13.6927311,3.6405994 13.4464509,3.88290907 13.1423874,3.88290907 C12.8386044,3.88290907 12.5920437,3.6405994 12.5920437,3.34205404 C12.5920437,3.04350868 12.8386044,2.80119901 13.1423874,2.80119901 C13.4464509,2.80119901 13.6927311,3.04350868 13.6927311,3.34205404"
                          id="Fill-31" fill="#231F1F"></path>
                    <path d="M13.1424996,2.91168561 C12.9009879,2.91168561 12.704637,3.10492688 12.704637,3.34199891 C12.704637,3.57934661 12.9009879,3.77258788 13.1424996,3.77258788 C13.3840113,3.77258788 13.5803623,3.57934661 13.5803623,3.34199891 C13.5803623,3.10492688 13.3840113,2.91168561 13.1424996,2.91168561 M13.1424996,3.99312 C12.7770063,3.99312 12.4799553,3.7011906 12.4799553,3.34199891 C12.4799553,2.98280722 12.7770063,2.69087782 13.1424996,2.69087782 C13.5079929,2.69087782 13.8050439,2.98280722 13.8050439,3.34199891 C13.8050439,3.7011906 13.5079929,3.99312 13.1424996,3.99312"
                          id="Fill-33" fill="#231F1F"></path>
                </g>
            </g>
        </g>
    </g>
</svg>